<?xml version="1.0" standalone="no"?>
<!DOCTYPE svg PUBLIC "-//W3C//DTD SVG 20010904//EN"
 "http://www.w3.org/TR/2001/REC-SVG-20010904/DTD/svg10.dtd">
<svg version="1.0" xmlns="http://www.w3.org/2000/svg"
 width="70.000000pt" height="70.000000pt" viewBox="0 0 70.000000 70.000000"
 preserveAspectRatio="xMidYMid meet">
<metadata>
Created by potrace 1.11, written by Peter Selinger 2001-2013
</metadata>
<g transform="translate(0.000000,70.000000) scale(0.100000,-0.100000)"
fill="#000000" stroke="none">
<path d="M190 509 c0 -16 5 -20 20 -16 19 5 20 0 20 -148 0 -144 -1 -153 -19
-148 -12 3 -20 -2 -24 -16 -5 -20 -1 -21 64 -21 64 0 69 2 69 21 0 16 -5 20
-20 16 -11 -3 -20 -1 -20 4 0 5 37 9 83 8 59 0 76 -3 60 -9 -13 -5 -23 -16
-23 -25 0 -12 13 -15 65 -15 60 0 65 2 65 21 0 16 -5 20 -20 16 -19 -5 -20 0
-20 144 0 147 2 155 33 150 4 0 7 8 7 19 0 17 -7 20 -43 20 l-43 0 -42 -92
-43 -93 -41 93 -40 92 -44 0 c-38 0 -44 -3 -44 -21z m101 -181 l-19 -43 0 80
-1 80 19 -37 c19 -36 19 -37 1 -80z m158 30 l0 -83 -19 48 c-19 44 -19 49 -3
82 9 19 18 35 20 35 2 0 3 -37 2 -82z m-94 -82 c4 -8 6 -8 10 0 3 6 11 19 18
29 12 15 14 13 24 -19 l11 -36 -60 0 c-53 0 -59 2 -53 18 4 9 10 26 13 36 5
18 6 18 18 1 7 -10 16 -23 19 -29z"/>
</g>
</svg>
